<svg width="619" height="125" viewBox="0 0 619 125" fill="none" xmlns="http://www.w3.org/2000/svg">
<path d="M0.284668 3.7614L8.78467 26.2614C20.7847 25.9281 47.1847 26.2614 56.7847 26.2614C66.3847 26.2614 73.118 30.1998 74.7847 32.6998C77.2847 36.4498 79.0847 38.2614 78.2847 50.2614C77.4847 62.2614 64.2847 65.9281 57.7847 66.2614H29.7847V51.2614H3.78467V122.261H29.7847V89.2614H56.7847L78.2847 122.261H107.285L81.2847 83.2614C92.0847 78.0614 97.4513 71.4281 98.7847 68.7614C103.951 59.7614 111.185 37.6614 98.7847 21.2614C86.3847 4.86139 69.7847 3.69983 57.7847 3.19992C45.7847 2.70001 24.2847 2.69998 0.284668 3.7614Z" fill="#191919" stroke="#141414" stroke-width="0.4"/>
<path d="M112.785 122.262H140.285L150.285 96.7616H202.785L212.785 122.262H240.285L192.785 11.7616L191.285 9.26156C188.785 6.70001 188.185 6.26156 183.785 4.26156C179.385 2.26156 167.285 2.42823 161.785 2.76157L193.785 75.2616L158.785 75.7616L167.285 53.2616L144.285 48.7616L112.785 122.262Z" fill="#191919" stroke="#141414" stroke-width="0.4"/>
<path d="M251.285 2.76154V122.262H275.785V47.2615L309.785 106.762H323.285L356.285 46.2615V122.262H381.285V2.76154H355.285L316.285 73.7616L277.285 2.76154H251.285Z" fill="#191919" stroke="#141414" stroke-width="0.4"/>
<path d="M488.785 10.2616L482.285 32.2616C474.451 27.5949 454.985 19.1616 439.785 22.7616C420.785 27.2616 424.785 36.2616 424.785 37.7616C424.785 39.2616 428.285 45.7616 436.785 47.7616C443.585 49.3616 456.285 52.4283 461.785 53.7616L473.285 57.2616C476.451 58.4283 483.685 61.8616 487.285 66.2616C490.885 70.6616 492.451 73.4283 492.785 74.2616C495.285 80.9283 497.985 96.9616 488.785 107.762C477.285 121.262 458.028 127.368 432.785 123.762C414.285 121.2 406.285 117.262 396.785 112.262L403.785 89.2616C409.785 93.2616 421.285 99.2 434.285 101.762C447.077 104.282 456.785 102.262 459.785 100.762C462.785 99.2616 467.785 96.7616 468.285 91.2616C468.785 85.7616 467.875 84.6674 465.285 82.2616C458.285 75.7616 445.785 75.095 436.785 72.7616C427.285 70.9283 405.985 64.0616 400.785 51.2616C394.285 35.2616 402.406 17.6302 411.785 10.2616C418.785 4.76164 428.785 0.761629 443.785 0.261636C468.771 -0.571224 484.785 7.26164 488.785 10.2616Z" fill="#191919" stroke="#141414" stroke-width="0.4"/>
<path d="M544.785 81.2617V122.262H570.785V81.2617L617.785 2.26166H590.285L558.285 56.2617L526.285 2.26166H497.785L544.785 81.2617Z" fill="#191919" stroke="#141414" stroke-width="0.4"/>
</svg>
